# xmcd CD database file
#
# Track frame offsets:
#	150
#	98841
#	161616
#	229419
#	277780
#	293560
#
# Disc length: 4406 seconds
#
# Revision: 0
# Processed by: cddbd v1.5PL3 Copyright (c) Steve Scherf et al.
# Submitted via: CDex 1.50
#
DISCID=48113406
DTITLE=Lol Coxhill, Torsten Müller, Paul Rutherford - Milwaukee 2002
DYEAR=2002
DGENRE=Jazz
TTITLE0=Woodland Bone Patterns
TTITLE1=Woodland Bass Patterns
TTITLE2=Woodland Sax Patterns
TTITLE3=Sax and Bass
TTITLE4=Sax and Bone
TTITLE5=All Three
EXTD=YEAR: 2002
EXTT0=
EXTT1=
EXTT2=
EXTT3=
EXTT4=
EXTT5=
PLAYORDER=
